<svg width="481" height="473" viewBox="0 0 481 473" fill="none" xmlns="http://www.w3.org/2000/svg">
<rect width="481" height="473" rx="100" fill="#D9D9D9"/>
<path d="M116 84C116 70.1929 127.193 59 141 59H339C352.807 59 364 70.1929 364 84V389C364 402.807 352.807 414 339 414H141C127.193 414 116 402.807 116 389V84Z" fill="#111111"/>
<circle cx="166.5" cy="219.5" r="25.5" fill="#D9D9D9"/>
<circle cx="166.5" cy="294.5" r="25.5" fill="#D9D9D9"/>
<circle cx="239.5" cy="219.5" r="25.5" fill="#D9D9D9"/>
<circle cx="239.5" cy="294.5" r="25.5" fill="#D9D9D9"/>
<circle cx="312.5" cy="219.5" r="25.5" fill="#F89B10"/>
<circle cx="312.5" cy="294.5" r="25.5" fill="#F89B10"/>
<circle cx="312.5" cy="369.5" r="25.5" fill="#F89B10"/>
<rect x="141" y="343" width="124" height="52" rx="26" fill="#D9D9D9"/>
<rect x="141" y="86" width="198" height="83" rx="15" fill="#505050"/>
</svg>
